Coordinates
version=1
nRows=29
nColumns=24
inDegrees=yes

Units are S.I. units (second, meters, Newtons, ...)
Angles are in degrees.

endheader
time	pelvis_tilt	pelvis_list	pelvis_rotation	pelvis_tx	pelvis_ty	pelvis_tz	hip_flexion_r	hip_adduction_r	hip_rotation_r	knee_angle_r	ankle_angle_r	subtalar_angle_r	mtp_angle_r	hip_flexion_l	hip_adduction_l	hip_rotation_l	knee_angle_l	ankle_angle_l	subtalar_angle_l	mtp_angle_l	lumbar_extension	lumbar_bending	lumbar_rotation
      1.23316667	     -0.96643218	      4.17139412	     -4.05813368	      0.26271403	      1.02915383	      0.27417807	     18.70668110	     -5.34974353	     -4.54763844	    -67.77918869	      2.16572326	     -6.13601048	     10.56973663	      8.63599404	      8.29658724	      0.17619026	    -10.49935012	      6.32637553	     -9.07236947	     -0.62254873	     -4.07842058	     -7.44633277	      3.35644256
      1.23733333	     -1.03848901	      3.94692363	     -4.13396928	      0.26777191	      1.02982634	      0.27407067	     19.29967724	     -5.00288928	     -4.39102248	    -67.47409770	      2.68604806	     -6.25803623	     10.53163339	      8.29104164	      8.08459749	      0.22675587	    -10.31894475	      6.44258893	     -9.10181964	     -0.63055641	     -4.09494454	     -7.16487918	      3.33334819
      1.24150000	     -1.11309896	      3.71960889	     -4.19991967	      0.27282801	      1.03047476	      0.27395535	     19.87678620	     -4.65474773	     -4.24946224	    -67.11111533	      3.19223023	     -6.34479674	     10.48886107	      7.95059841	      7.87066741	      0.28309955	    -10.14208272	      6.54905462	     -9.14756359	     -0.64047931	     -4.10527463	     -6.87524053	      3.30697550
      1.24566667	     -1.22259542	      3.50212100	     -4.23472877	      0.27786081	      1.03103515	      0.27378132	     20.47740822	     -4.32741069	     -4.13663489	    -66.70939754	      3.75392222	     -6.29842175	      9.91660184	      7.63840057	      7.68303743	      0.50376690	     -9.94068693	      6.55047672	     -9.45665913	     -0.77348948	     -4.09305925	     -6.60600983	      3.18567279
      1.24983333	     -1.28184242	      3.26804087	     -4.30071871	      0.28292389	      1.03167427	      0.27368558	     20.99920556	     -3.96827092	     -4.00557009	    -66.21961392	      4.15653429	     -6.41359563	      9.87551743	      7.27908335	      7.45861939	      0.52903397	     -9.75669117	      6.66137121	     -9.45195724	     -0.78369204	     -4.11378939	     -6.30129030	      3.18571870
      1.25400000	     -1.35046926	      3.02691599	     -4.34793477	      0.28796813	      1.03226579	      0.27356905	     21.51000905	     -3.60553792	     -3.89391928	    -65.67395567	      4.55671326	     -6.49668017	      9.83176147	      6.93947631	      7.22933431	      0.58502064	     -9.59400691	      6.77390163	     -9.47567950	     -0.79519814	     -4.13829949	     -5.99717701	      3.17031692
      1.25816667	     -1.41931109	      2.79253886	     -4.38176181	      0.29301572	      1.03281787	      0.27343104	     22.00170731	     -3.25755536	     -3.80025550	    -65.07318267	      4.93720737	     -6.56391092	      9.78153022	      6.60094994	      7.01067538	      0.65963010	     -9.43121365	      6.87877816	     -9.51966822	     -0.80928316	     -4.16356540	     -5.69930353	      3.13978113
      1.26233333	     -1.48237251	      2.54495130	     -4.39087609	      0.29803630	      1.03336836	      0.27327648	     22.46046958	     -2.90162806	     -3.73173156	    -64.40286597	      5.26427134	     -6.61432809	      9.68697615	      6.26291470	      6.78133372	      0.78436641	     -9.28298914	      6.96255046	     -9.61012260	     -0.83697702	     -4.22156441	     -5.39206892	      3.08096839
      1.26650000	     -1.49779625	      2.32052825	     -4.41100920	      0.30307228	      1.03395027	      0.27313161	     22.85336747	     -2.57309839	     -3.65326342	    -63.68298430	      5.58221153	     -6.74154764	      9.24047682	      5.83657635	      6.59023989	      0.99559202	     -9.04547192	      6.94821769	     -9.89901245	     -0.97660520	     -4.33388259	     -5.10328295	      2.91089633
      1.27066667	     -1.57666468	      2.10940867	     -4.42407961	      0.30813325	      1.03437718	      0.27298798	     23.30055518	     -2.26156049	     -3.58626195	    -62.92124822	      5.89929611	     -6.78557599	      9.19698819	      5.51791059	      6.39436116	      1.04747898	     -8.89328369	      7.06836627	     -9.91626816	     -0.99046893	     -4.30790345	     -4.83960030	      2.90511999
      1.27483333	     -1.59779491	      1.86389774	     -4.40594903	      0.31314829	      1.03489317	      0.27282214	     23.64628050	     -1.92019903	     -3.54970199	    -62.06479536	      6.11159848	     -6.95934024	      8.85323766	      5.13022490	      6.17468289	      1.21972253	     -8.72790584	      7.11957610	    -10.08345515	     -1.10827954	     -4.42520937	     -4.54078247	      2.77028960
      1.27900000	     -1.66366088	      1.64810326	     -4.37842279	      0.31818013	      1.03527614	      0.27263433	     24.03224462	     -1.62287149	     -3.52672928	    -61.18060466	      6.35419521	     -7.00628958	      8.78308353	      4.81209536	      5.97875524	      1.32152179	     -8.60180073	      7.23349604	    -10.12017025	     -1.13239183	     -4.43898387	     -4.26798760	      2.75262929
      1.28316667	     -1.71163007	      1.45333016	     -4.33444480	      0.32321355	      1.03564008	      0.27243139	     24.37963330	     -1.35548003	     -3.51510246	    -60.24585158	      6.57939007	     -7.13772076	      7.85481873	      4.43880772	      5.82230331	      1.61755135	     -8.39400617	      7.23839232	    -10.46273601	     -1.48737045	     -4.49431211	     -4.02431453	      2.58255781
      1.28733333	     -1.74752074	      1.23737441	     -4.29815873	      0.32825629	      1.03600738	      0.27225940	     24.68428682	     -1.05976225	     -3.49966863	    -59.22743064	      6.67103162	     -7.35173296	      7.76902685	      4.09101917	      5.62306633	      1.67852748	     -8.26899056	      7.36024859	    -10.42987574	     -1.51732884	     -4.55073394	     -3.75457471	      2.53319339
      1.29150000	     -1.78138572	      1.02545189	     -4.23684689	      0.33329478	      1.03633336	      0.27205151	     24.96285200	     -0.78247035	     -3.51096778	    -58.15443764	      6.76225117	     -7.57929697	      7.67366786	      3.73883141	      5.43437420	      1.81539506	     -8.13736555	      7.46278615	    -10.49391167	     -1.55250501	     -4.61774404	     -3.48885717	      2.42167031
      1.29566667	     -1.83796704	      0.83726779	     -4.15892138	      0.33830997	      1.03656293	      0.27181550	     25.25420348	     -0.54178513	     -3.53717083	    -57.04491277	      6.87575913	     -7.76234817	      7.61160009	      3.43299212	      5.26997156	      1.94312137	     -8.04206354	      7.55380195	    -10.56759344	     -1.57519727	     -4.66422978	     -3.24140917	      2.34404242
      1.29983333	     -1.86277174	      0.66037784	     -4.08024598	      0.34335740	      1.03681536	      0.27161192	     25.48401770	     -0.30851186	     -3.55419347	    -55.86339217	      6.86150429	     -8.12684718	      7.47094995	      3.06132232	      5.12173326	      2.14329038	     -7.87861431	      7.60706354	    -10.71450824	     -1.63038619	     -4.74279680	     -3.02743337	      2.15301931
      1.30400000	     -1.90542623	      0.47189744	     -3.96927799	      0.34842281	      1.03700924	      0.27133905	     25.70305004	     -0.08813521	     -3.62222062	    -54.61877046	      6.83052868	     -8.42633009	      7.35250338	      2.72814846	      4.95929405	      2.33264385	     -7.75887277	      7.70110840	    -10.81784219	     -1.67563810	     -4.77892072	     -2.78523203	      2.02028736
      1.30816667	     -1.93960985	      0.30400741	     -3.85976608	      0.35347323	      1.03717385	      0.27109444	     25.89560516	      0.11661898	     -3.67163792	    -53.32562009	      6.78980298	     -8.78375838	      7.20640950	      2.38706772	      4.81746506	      2.52478901	     -7.63316504	      7.75973673	    -10.93703787	     -1.73396972	     -4.85405150	     -2.57229771	      1.85979316
      1.31233333	     -1.99313902	      0.14747028	     -3.72839510	      0.35855036	      1.03726237	      0.27081461	     26.08661798	      0.29125909	     -3.75719465	    -51.98100051	      6.69977225	     -9.15143676	      7.05837060	      2.07379905	      4.68578166	      2.71848379	     -7.52062741	      7.84179556	    -11.04364216	     -1.79154396	     -4.87804517	     -2.36602362	      1.70107281
      1.31650000	     -2.03051893	     -0.00681847	     -3.58685223	      0.36364159	      1.03734436	      0.27051748	     26.23308528	      0.45464576	     -3.85750852	    -50.57391859	      6.57654710	     -9.53916052	      6.91848505	      1.74564647	      4.55680894	      2.90696666	     -7.41280451	      7.93073781	    -11.13568793	     -1.84476794	     -4.92055513	     -2.16851261	      1.54661016
      1.32066667	     -2.07953057	     -0.14472592	     -3.43660827	      0.36874322	      1.03737051	      0.27022553	     26.37051292	      0.59813421	     -3.96137511	    -49.11629525	      6.42589979	     -9.96198124	      6.76169372	      1.43124982	      4.44252669	      3.10681227	     -7.30326508	      8.00472131	    -11.23222061	     -1.90513271	     -4.95626260	     -1.98822015	      1.36808671
      1.32483333	     -2.12713001	     -0.28378758	     -3.27309815	      0.37387071	      1.03736137	      0.26991858	     26.47855123	      0.73215634	     -4.08970501	    -47.59962536	      6.24378345	    -10.39056312	      6.60537694	      1.11746361	      4.32542037	      3.30651475	     -7.19933940	      8.09216164	    -11.32020766	     -1.96411139	     -4.98929112	     -1.80415835	      1.19271255
      1.32900000	     -2.17819854	     -0.40280287	     -3.09956817	      0.37901374	      1.03730596	      0.26960921	     26.56838114	      0.84109560	     -4.22077948	    -46.03505411	      6.04468745	    -10.82759107	      6.44036250	      0.81226179	      4.22794919	      3.50884046	     -7.10341795	      8.17291411	    -11.40123936	     -2.02673975	     -4.99678290	     -1.63613301	      1.00734370
      1.33316667	     -2.24245948	     -0.50713599	     -2.92172680	      0.38418120	      1.03718932	      0.26930289	     26.65044214	      0.92861321	     -4.36839757	    -44.42293515	      5.82576041	    -11.26298951	      6.26776731	      0.52112527	      4.14394321	      3.70821375	     -7.00649027	      8.25346111	    -11.48605796	     -2.09330819	     -4.99773246	     -1.49362439	      0.81645079
      1.33733333	     -2.28882524	     -0.61995450	     -2.73637458	      0.38939014	      1.03707932	      0.26899851	     26.68021020	      1.01951284	     -4.53266494	    -42.74625348	      5.58966121	    -11.70006444	      6.08136812	      0.20160061	      4.04827878	      3.90937369	     -6.89284411	      8.33254549	    -11.55582371	     -2.16662754	     -5.01495501	     -1.33930951	      0.62092132
      1.34150000	     -2.37380739	     -0.71440642	     -2.53629198	      0.39460022	      1.03686022	      0.26867416	     26.73712574	      1.07638051	     -4.73494571	    -41.04371318	      5.40156713	    -12.02569295	      5.94211206	     -0.05721145	      3.96835775	      4.09500646	     -6.81640408	      8.42864394	    -11.60893106	     -2.22048021	     -5.00966315	     -1.20716241	      0.47348835
      1.34566667	     -2.41008759	     -0.78262011	     -2.35613134	      0.39985552	      1.03668422	      0.26842868	     26.71201062	      1.12976263	     -4.87712237	    -39.27619391	      5.11933187	    -12.48939199	      5.71686701	     -0.39779651	      3.91503698	      4.29437138	     -6.67907921	      8.47485464	    -11.67571392	     -2.31562332	     -5.01778453	     -1.11478215	      0.22248411
      1.34983333	     -2.47312129	     -0.85834030	     -2.15217667	      0.40514404	      1.03644691	      0.26813687	     26.68824551	      1.16958509	     -5.08152036	    -37.46446756	      4.87854493	    -12.83356857	      5.49803712	     -0.69756368	      3.85100376	      4.48692932	     -6.56969142	      8.55419940	    -11.73573505	     -2.41179809	     -4.99894759	     -1.00745122	      0.01949789
